<?xml version="1.0" standalone="no"?>
<!DOCTYPE svg PUBLIC "-//W3C//DTD SVG 20010904//EN"
 "http://www.w3.org/TR/2001/REC-SVG-20010904/DTD/svg10.dtd">
<svg version="1.0" xmlns="http://www.w3.org/2000/svg"
 width="240.000000pt" height="240.000000pt" viewBox="0 0 240.000000 240.000000"
 preserveAspectRatio="xMidYMid meet">
<metadata>
Created by potrace 1.14, written by Peter Selinger 2001-2017
</metadata>
<g transform="translate(0.000000,240.000000) scale(0.100000,-0.100000)"
fill="#000000" stroke="none">
<path d="M1014 2000 c-105 -27 -171 -65 -239 -135 -111 -115 -145 -220 -145
-456 l0 -96 -35 -6 c-120 -20 -175 -176 -116 -328 25 -66 81 -127 122 -136
l29 -5 0 -419 c0 -273 3 -419 10 -419 7 0 10 275 10 805 l0 805 25 65 c35 94
70 148 130 204 66 60 116 85 226 112 142 36 327 16 464 -51 103 -50 196 -155
242 -275 13 -33 21 -46 18 -30 -20 107 -138 252 -253 313 -126 67 -344 90
-488 52z m-384 -746 c0 -44 -1 -46 -25 -40 -19 5 -32 0 -50 -18 -14 -14 -25
-31 -25 -38 0 -8 5 -6 11 4 17 30 46 40 63 22 22 -21 20 -62 -5 -113 -23 -48
-19 -89 12 -117 13 -12 19 -30 19 -61 0 -50 -11 -54 -61 -20 -69 45 -115 192
-95 301 12 61 82 124 139 126 14 0 17 -9 17 -46z m-2 -271 l-4 -28 -8 28 c-5
15 -5 39 0 55 l8 27 4 -27 c2 -16 2 -40 0 -55z"/>
<path d="M1761 1595 c0 -5 6 -35 14 -65 7 -30 13 -44 13 -30 0 24 -25 115 -27
95z"/>
<path d="M1794 1350 c0 -69 1 -97 3 -62 2 34 2 90 0 125 -2 34 -3 6 -3 -63z"/>
<path d="M878 1345 c-16 -9 -28 -13 -28 -10 0 4 -7 0 -15 -9 -19 -19 -20 -32
-1 -17 26 22 118 24 236 5 162 -25 184 -24 188 4 2 15 -2 22 -12 22 -9 0 -16
-6 -16 -12 0 -9 -3 -9 -9 1 -12 18 -28 21 -186 26 -104 4 -135 2 -157 -10z"/>
<path d="M1495 1330 c6 -9 -16 -14 -52 -13 -17 1 -16 -12 1 -26 11 -9 41 -8
131 4 87 12 124 14 147 6 38 -13 38 -13 38 -1 0 6 -6 10 -14 10 -8 0 -16 6
-18 12 -3 9 -40 13 -122 15 -73 1 -115 -1 -111 -7z"/>
<path d="M970 1247 c-14 -7 -34 -29 -45 -50 l-20 -38 25 -20 c14 -11 36 -24
48 -30 51 -20 123 46 109 101 -8 32 21 24 61 -16 l36 -36 -27 -24 c-31 -27
-30 -29 8 -12 31 14 33 45 3 83 -39 50 -139 72 -198 42z m44 -42 c-3 -8 -19
-13 -35 -13 -25 1 -27 3 -16 17 6 9 16 19 22 23 13 10 35 -11 29 -27z m-18
-76 c8 -14 -10 -11 -32 6 -18 13 -18 14 4 8 12 -3 25 -9 28 -14z"/>
<path d="M1524 1235 c-39 -20 -70 -80 -53 -102 16 -19 63 -43 84 -43 9 0 30
14 47 30 25 25 29 37 26 65 -2 19 -2 35 0 35 16 0 60 -33 71 -54 13 -23 12
-28 -4 -46 -10 -11 -14 -20 -8 -20 5 0 18 9 28 20 17 18 17 21 -1 51 -11 18
-30 40 -44 50 -36 27 -108 33 -146 14z m29 -28 c8 -21 -6 -35 -35 -35 -26 0
-26 1 -11 24 17 27 38 31 46 11z m-22 -77 c19 -15 20 -19 8 -20 -9 0 -27 9
-40 20 -19 15 -20 19 -8 20 9 0 27 -9 40 -20z"/>
<path d="M1783 1175 c0 -27 2 -38 4 -22 2 15 2 37 0 50 -2 12 -4 0 -4 -28z"/>
<path d="M1774 915 c0 -110 2 -156 3 -103 2 53 2 143 0 200 -1 57 -3 13 -3
-97z"/>
<path d="M1415 1010 c3 -25 21 -76 39 -113 37 -72 37 -85 7 -104 -21 -13 -192
-20 -210 -9 -16 10 -13 -9 3 -23 22 -18 134 -44 161 -37 35 9 85 63 85 93 0
14 -10 41 -21 60 -12 19 -33 67 -46 106 -21 65 -23 67 -18 27z"/>
<path d="M1762 675 c0 -16 2 -22 5 -12 2 9 2 23 0 30 -3 6 -5 -1 -5 -18z"/>
<path d="M1134 661 c-38 -17 -87 -68 -113 -118 -38 -74 -31 -204 18 -305 15
-32 25 -58 23 -58 -9 0 -147 72 -172 90 -14 9 -36 23 -50 30 -41 20 72 -85
128 -120 57 -35 179 -80 216 -80 23 0 25 -4 29 -53 3 -49 3 -48 5 16 l2 67 43
0 c64 0 161 18 222 41 73 27 144 97 189 187 37 73 86 227 86 266 -1 11 -12
-21 -25 -73 -14 -52 -38 -124 -55 -160 -30 -63 -78 -136 -86 -129 -2 2 6 33
17 68 39 122 22 248 -41 305 -31 28 -132 45 -270 45 -100 0 -133 -4 -166 -19z
m311 -101 c-7 -11 -155 -11 -200 0 -19 5 12 8 88 9 77 1 116 -3 112 -9z m-170
-31 c54 -10 135 -6 207 8 22 4 29 0 42 -25 18 -35 21 -94 6 -122 -18 -34 -46
-42 -85 -26 -42 18 -46 48 -13 83 l22 24 -54 -7 c-30 -3 -79 -2 -107 4 -54 9
-65 4 -38 -18 19 -16 19 -29 -2 -52 -21 -24 -64 -23 -97 3 -29 23 -36 77 -14
124 10 23 16 26 42 20 17 -3 58 -11 91 -16z"/>
</g>
</svg>
